REM DIRINDEX 1\2,1\3
REM DIRNAME cjc039,folder01,folder02
TITLE ""
FILE "2041-2060.mp3" MP3
  TRACK 01 AUDIO
    TITLE "0:"
    INDEX 01 00:00:00
  TRACK 02 AUDIO
    TITLE "2:cjc039_3081"
    INDEX 01 00:00:25
  TRACK 03 AUDIO
    TITLE "0:"
    INDEX 01 00:01:32
  TRACK 04 AUDIO
    TITLE "3:cjc039_3082"
    INDEX 01 00:02:10
  TRACK 05 AUDIO
    TITLE "0:"
    INDEX 01 00:06:12
  TRACK 06 AUDIO
    TITLE "2:cjc039_3083"
    INDEX 01 00:07:64
  TRACK 07 AUDIO
    TITLE "0:"
    INDEX 01 00:09:14
  TRACK 08 AUDIO
    TITLE "3:cjc039_3084"
    INDEX 01 00:09:61
  TRACK 09 AUDIO
    TITLE "0:"
    INDEX 01 00:14:13
  TRACK 10 AUDIO
    TITLE "2:cjc039_3085"
    INDEX 01 00:15:66
  TRACK 11 AUDIO
    TITLE "0:"
    INDEX 01 00:17:08
  TRACK 12 AUDIO
    TITLE "3:cjc039_3086"
    INDEX 01 00:17:57
  TRACK 13 AUDIO
    TITLE "0:"
    INDEX 01 00:21:51
  TRACK 14 AUDIO
    TITLE "2:cjc039_3087"
    INDEX 01 00:23:24
  TRACK 15 AUDIO
    TITLE "0:"
    INDEX 01 00:24:57
  TRACK 16 AUDIO
    TITLE "3:cjc039_3088"
    INDEX 01 00:25:33
  TRACK 17 AUDIO
    TITLE "0:"
    INDEX 01 00:29:25
  TRACK 18 AUDIO
    TITLE "2:cjc039_3089"
    INDEX 01 00:31:02
  TRACK 19 AUDIO
    TITLE "0:"
    INDEX 01 00:32:35
  TRACK 20 AUDIO
    TITLE "3:cjc039_3090"
    INDEX 01 00:33:11
  TRACK 21 AUDIO
    TITLE "0:"
    INDEX 01 00:37:08
  TRACK 22 AUDIO
    TITLE "2:cjc039_3091"
    INDEX 01 00:38:61
  TRACK 23 AUDIO
    TITLE "0:"
    INDEX 01 00:40:17
  TRACK 24 AUDIO
    TITLE "3:cjc039_3092"
    INDEX 01 00:40:70
  TRACK 25 AUDIO
    TITLE "0:"
    INDEX 01 00:45:45
  TRACK 26 AUDIO
    TITLE "2:cjc039_3093"
    INDEX 01 00:47:13
  TRACK 27 AUDIO
    TITLE "0:"
    INDEX 01 00:48:20
  TRACK 28 AUDIO
    TITLE "3:cjc039_3094"
    INDEX 01 00:48:69
  TRACK 29 AUDIO
    TITLE "0:"
    INDEX 01 00:52:20
  TRACK 30 AUDIO
    TITLE "2:cjc039_3095"
    INDEX 01 00:53:68
  TRACK 31 AUDIO
    TITLE "0:"
    INDEX 01 00:55:14
  TRACK 32 AUDIO
    TITLE "3:cjc039_3096"
    INDEX 01 00:55:69
  TRACK 33 AUDIO
    TITLE "0:"
    INDEX 01 00:59:41
  TRACK 34 AUDIO
    TITLE "2:cjc039_3097"
    INDEX 01 01:01:11
  TRACK 35 AUDIO
    TITLE "0:"
    INDEX 01 01:02:30
  TRACK 36 AUDIO
    TITLE "3:cjc039_3098"
    INDEX 01 01:03:04
  TRACK 37 AUDIO
    TITLE "0:"
    INDEX 01 01:06:14
  TRACK 38 AUDIO
    TITLE "2:cjc039_3099"
    INDEX 01 01:07:63
  TRACK 39 AUDIO
    TITLE "0:"
    INDEX 01 01:09:20
  TRACK 40 AUDIO
    TITLE "3:cjc039_3100"
    INDEX 01 01:10:69
  TRACK 41 AUDIO
    TITLE "0:"
    INDEX 01 01:15:17
  TRACK 42 AUDIO
    TITLE "2:cjc039_3101"
    INDEX 01 01:16:65
  TRACK 43 AUDIO
    TITLE "0:"
    INDEX 01 01:18:06
  TRACK 44 AUDIO
    TITLE "3:cjc039_3102"
    INDEX 01 01:18:54
  TRACK 45 AUDIO
    TITLE "0:"
    INDEX 01 01:23:52
  TRACK 46 AUDIO
    TITLE "2:cjc039_3103"
    INDEX 01 01:25:31
  TRACK 47 AUDIO
    TITLE "0:"
    INDEX 01 01:26:48
  TRACK 48 AUDIO
    TITLE "3:cjc039_3104"
    INDEX 01 01:27:22
  TRACK 49 AUDIO
    TITLE "0:"
    INDEX 01 01:31:69
  TRACK 50 AUDIO
    TITLE "2:cjc039_3105"
    INDEX 01 01:33:46
  TRACK 51 AUDIO
    TITLE "0:"
    INDEX 01 01:34:50
  TRACK 52 AUDIO
    TITLE "3:cjc039_3106"
    INDEX 01 01:35:24
  TRACK 53 AUDIO
    TITLE "0:"
    INDEX 01 01:38:42
  TRACK 54 AUDIO
    TITLE "2:cjc039_3107"
    INDEX 01 01:40:11
  TRACK 55 AUDIO
    TITLE "0:"
    INDEX 01 01:41:34
  TRACK 56 AUDIO
    TITLE "3:cjc039_3108"
    INDEX 01 01:42:10
  TRACK 57 AUDIO
    TITLE "0:"
    INDEX 01 01:46:29
  TRACK 58 AUDIO
    TITLE "2:cjc039_3109"
    INDEX 01 01:48:07
  TRACK 59 AUDIO
    TITLE "0:"
    INDEX 01 01:49:06
  TRACK 60 AUDIO
    TITLE "3:cjc039_3110"
    INDEX 01 01:49:59
  TRACK 61 AUDIO
    TITLE "0:"
    INDEX 01 01:54:25
  TRACK 62 AUDIO
    TITLE "2:cjc039_3111"
    INDEX 01 01:55:73
  TRACK 63 AUDIO
    TITLE "0:"
    INDEX 01 01:57:29
  TRACK 64 AUDIO
    TITLE "3:cjc039_3112"
    INDEX 01 01:58:07
  TRACK 65 AUDIO
    TITLE "0:"
    INDEX 01 02:02:22
  TRACK 66 AUDIO
    TITLE "2:cjc039_3113"
    INDEX 01 02:04:02
  TRACK 67 AUDIO
    TITLE "0:"
    INDEX 01 02:05:05
  TRACK 68 AUDIO
    TITLE "3:cjc039_3114"
    INDEX 01 02:05:58
  TRACK 69 AUDIO
    TITLE "0:"
    INDEX 01 02:09:13
  TRACK 70 AUDIO
    TITLE "2:cjc039_3115"
    INDEX 01 02:10:67
  TRACK 71 AUDIO
    TITLE "0:"
    INDEX 01 02:12:21
  TRACK 72 AUDIO
    TITLE "3:cjc039_3116"
    INDEX 01 02:12:74
  TRACK 73 AUDIO
    TITLE "0:"
    INDEX 01 02:17:24
  TRACK 74 AUDIO
    TITLE "2:cjc039_3117"
    INDEX 01 02:18:70
  TRACK 75 AUDIO
    TITLE "0:"
    INDEX 01 02:19:74
  TRACK 76 AUDIO
    TITLE "3:cjc039_3118"
    INDEX 01 02:20:50
  TRACK 77 AUDIO
    TITLE "0:"
    INDEX 01 02:23:38
  TRACK 78 AUDIO
    TITLE "2:cjc039_3119"
    INDEX 01 02:25:16
  TRACK 79 AUDIO
    TITLE "0:"
    INDEX 01 02:26:44
  TRACK 80 AUDIO
    TITLE "3:cjc039_3120"
    INDEX 01 02:27:18
  TRACK 81 AUDIO
    TITLE "0:"
    INDEX 01 02:30:66
